<?xml version="1.0" standalone="no" ?>
<!DOCTYPE svg PUBLIC "-//W3C//DTD SVG 20010904//EN" "http://www.w3.org/TR/2001/REC-SVG-20010904/DTD/svg10.dtd">
<svg version="1.0" xmlns="http://www.w3.org/2000/svg" width="184.000000pt" height="197.000000pt" viewBox="0 0 184.000000 197.000000" preserveAspectRatio="xMidYMid meet">

    <g transform="translate(0.000000,197.000000) scale(0.100000,-0.100000)" fill="#ffffff" stroke="none">
        <path d="M1390 1940 c0 -10 11 -38 25 -61 14 -24 25 -50 25 -57 0 -8 9 -26 19
-41 11 -15 22 -45 26 -66 7 -41 21 -93 36 -132 14 -37 -29 -77 -103 -98 -35
-9 -83 -24 -107 -32 -25 -8 -47 -11 -52 -6 -5 5 -5 30 2 59 15 68 28 287 18
298 -5 5 -28 -7 -55 -30 -25 -21 -65 -53 -88 -70 -22 -17 -58 -47 -78 -66 -34
-32 -38 -40 -38 -86 0 -87 -10 -95 -90 -67 -24 9 -48 11 -57 7 -16 -9 87 -42
132 -42 14 0 25 -4 25 -10 0 -15 -51 -12 -100 5 -63 22 -78 19 -126 -25 -41
-37 -84 -53 -84 -30 0 6 8 10 18 10 10 0 33 14 52 31 29 25 30 28 8 15 -45
-26 -72 -21 -91 19 -9 20 -17 41 -17 49 0 23 -44 54 -135 94 -49 22 -101 43
-114 47 l-24 7 6 -92 c4 -51 7 -112 7 -136 0 -38 4 -44 37 -65 21 -13 46 -27
57 -31 13 -6 17 -15 14 -33 -5 -22 -3 -24 20 -18 17 4 23 2 18 -5 -15 -25
-149 -57 -231 -56 -79 1 -150 18 -129 32 6 4 14 45 18 92 10 118 33 262 50
307 8 21 17 58 20 83 l6 45 -18 -25 c-9 -14 -27 -34 -39 -46 -13 -12 -23 -28
-23 -35 0 -8 -20 -47 -44 -86 -115 -184 -150 -293 -158 -488 l-3 -70 50 -8
c28 -4 111 -4 185 0 74 4 140 7 145 8 6 0 9 -25 7 -62 -2 -38 2 -71 10 -86 12
-23 84 -90 140 -132 20 -15 32 -39 46 -93 l20 -73 -42 -41 c-22 -22 -55 -51
-72 -64 l-31 -24 13 -52 c8 -28 20 -58 27 -67 7 -9 19 -28 26 -42 7 -15 33
-47 58 -73 l44 -46 78 6 78 7 10 -29 c6 -16 16 -48 22 -72 17 -62 34 -67 178
-48 110 14 176 32 226 62 17 10 18 16 8 69 -20 108 -21 106 58 103 45 -1 75 3
85 11 24 20 96 259 96 320 0 27 -4 30 -52 40 -29 6 -78 16 -108 23 -30 6 -61
16 -67 21 -7 5 -13 31 -13 58 0 47 2 50 85 135 l84 86 -15 37 c-9 20 -18 44
-21 53 -3 10 -10 15 -16 11 -7 -4 -8 0 -4 11 5 11 -1 32 -14 52 -11 19 -19 46
-17 61 3 23 9 28 43 35 22 4 56 15 75 23 19 8 61 19 93 24 55 10 72 16 177 63
71 31 120 68 120 91 0 61 -144 282 -237 364 -36 32 -75 67 -87 79 -11 12 -31
24 -44 28 -12 4 -26 15 -32 25 -14 27 -50 34 -50 11z m140 -117 c0 -7 -73 53
-95 78 -11 13 6 1 38 -25 31 -27 57 -51 57 -53z m-268 -58 c-9 -17 -192 -165
-204 -165 -21 0 2 22 100 97 59 46 108 83 110 83 2 0 -1 -7 -6 -15z m-621
-233 c-14 -5 -189 78 -194 92 -3 6 42 -11 100 -39 57 -27 100 -51 94 -53z
m-455 -10 c-18 -16 -18 -16 -6 6 6 13 14 21 18 18 3 -4 -2 -14 -12 -24z m1364
-3 c0 -14 -134 -75 -206 -94 -67 -17 -138 -20 -129 -5 3 6 18 10 33 10 47 0
167 36 228 68 67 34 74 36 74 21z m-1389 -42 c-10 -9 -11 -8 -5 6 3 10 9 15
12 12 3 -3 0 -11 -7 -18z m1182 -823 c100 -29 135 -43 104 -44 -19 0 -217 57
-225 65 -12 12 35 3 121 -21z m-748 -144 c-38 -38 -74 -70 -79 -70 -6 0 21 32
59 70 38 39 74 70 79 70 6 0 -21 -31 -59 -70z" />
        <path d="M355 1254 l-50 -13 65 4 c36 3 79 9 95 14 28 9 27 9 -15 9 -25 0 -67
-6 -95 -14z" />
    </g>
</svg>