<?xml version="1.0" standalone="no"?>
<!DOCTYPE svg PUBLIC "-//W3C//DTD SVG 20010904//EN"
 "http://www.w3.org/TR/2001/REC-SVG-20010904/DTD/svg10.dtd">
<svg version="1.0" xmlns="http://www.w3.org/2000/svg"
 width="306.000000pt" height="303.000000pt" viewBox="0 0 306.000000 303.000000"
 preserveAspectRatio="xMidYMid meet">

<g transform="translate(0.000000,303.000000) scale(0.100000,-0.100000)"
fill="#500050" stroke="none" opacity="0.1">
<path d="M621 2925 c-23 -25 -45 -45 -50 -45 -11 0 -41 -34 -41 -47 0 -12 -26
-44 -101 -127 -77 -87 -135 -159 -164 -206 -15 -25 -31 -47 -35 -50 -3 -3 -14
-23 -24 -45 -11 -22 -26 -51 -35 -65 -33 -50 -131 -385 -131 -448 0 -15 13
-23 62 -36 113 -30 201 -47 303 -56 55 -6 130 -13 167 -16 84 -8 94 -18 73
-75 -29 -78 -37 -126 -26 -148 6 -11 11 -29 11 -41 0 -11 11 -32 24 -45 14
-14 37 -42 52 -62 16 -21 43 -54 61 -73 18 -19 41 -45 52 -58 20 -24 47 -142
38 -166 -3 -7 -2 -30 3 -51 5 -21 6 -43 4 -50 -6 -15 -184 -135 -227 -153
l-27 -12 4 -84 c3 -49 11 -94 19 -108 8 -13 22 -46 31 -75 10 -28 26 -63 37
-77 10 -13 19 -28 19 -33 0 -6 9 -21 20 -34 11 -13 30 -37 43 -52 21 -27 26
-28 132 -32 99 -4 111 -7 127 -27 16 -21 24 -61 18 -98 -1 -8 4 -40 11 -72 18
-89 31 -95 219 -104 85 -4 182 -7 214 -6 73 3 178 27 211 48 25 16 25 19 24
129 -1 62 2 118 5 124 10 15 52 14 121 -5 64 -18 107 -19 134 -4 19 10 155
259 167 305 4 16 15 43 25 60 9 16 24 55 33 85 13 45 14 56 3 67 -16 17 -218
94 -232 90 -5 -2 36 -26 93 -52 100 -47 116 -60 89 -71 -20 -7 -349 154 -344
169 5 13 9 13 45 2 22 -6 23 -5 12 15 -15 27 -6 111 16 155 17 34 99 104 165
142 24 13 46 28 49 32 3 5 19 16 37 25 50 25 56 44 37 133 -9 43 -19 83 -24
88 -4 6 -8 25 -8 43 0 19 -8 44 -16 57 -18 27 -21 101 -6 125 11 18 140 36
345 49 77 5 154 13 170 19 17 6 55 16 85 22 76 17 159 45 211 72 40 21 44 27
47 66 2 24 -3 56 -12 72 -8 16 -17 44 -21 62 -30 147 -160 406 -255 509 -28
30 -50 58 -50 63 0 4 -12 17 -26 28 -14 12 -30 31 -35 44 -5 14 -20 29 -33 34
-13 5 -32 21 -43 36 -28 42 -74 85 -84 78 -16 -9 -10 -80 11 -125 11 -24 20
-59 20 -77 0 -18 10 -58 23 -90 15 -37 24 -81 26 -127 1 -38 6 -101 11 -140
14 -102 13 -103 -27 -141 -36 -33 -37 -34 -10 -24 39 14 80 13 75 -2 -12 -37
-269 -98 -421 -99 -113 -1 -147 5 -147 27 0 10 14 14 55 14 54 0 55 0 36 19
-19 19 -19 20 0 57 10 21 19 49 19 62 0 13 11 38 25 56 25 32 28 46 64 231 11
55 23 110 26 122 5 15 1 24 -13 32 -16 8 -33 1 -98 -40 -43 -27 -86 -54 -94
-59 -8 -5 -35 -18 -60 -29 -78 -36 -163 -87 -185 -113 -13 -16 -24 -46 -28
-77 -3 -28 -15 -72 -26 -97 -19 -42 -23 -46 -48 -40 -16 4 -58 22 -94 41 -60
31 -79 35 -79 15 0 -14 172 -90 201 -90 31 0 41 -23 13 -34 -29 -11 -46 -6
-148 46 l-102 51 -48 -29 c-26 -16 -64 -39 -84 -51 -47 -28 -105 -31 -100 -5
2 10 13 18 28 19 42 2 44 3 75 29 l30 25 -27 -12 c-67 -29 -128 28 -128 120 0
30 -8 56 -22 79 -27 40 -347 257 -360 244 -8 -8 -14 -54 -38 -277 -16 -155
-18 -145 55 -206 64 -53 83 -84 71 -114 -4 -12 3 -15 29 -15 43 0 48 -27 8
-36 -16 -3 -46 -10 -68 -16 -61 -15 -271 -11 -338 7 -68 18 -143 50 -152 66
-4 6 0 16 8 22 9 7 21 41 27 77 7 36 16 70 21 76 5 6 15 39 23 75 8 35 19 78
25 94 5 17 20 64 33 105 12 41 41 111 64 155 41 80 81 191 72 200 -3 3 -24
-15 -47 -40z m1937 -140 c-3 -4 -16 9 -28 27 l-23 33 28 -27 c16 -15 26 -30
23 -33z m-378 -72 c-1 -23 -44 -52 -194 -133 -91 -50 -170 -90 -176 -90 -18 0
-11 25 11 38 12 8 67 38 123 67 55 29 128 69 161 88 63 37 75 42 75 30z
m-1167 -108 c75 -49 137 -96 137 -102 0 -27 -13 -20 -227 126 -35 24 -63 49
-63 58 0 19 -6 22 153 -82z m-113 -1627 c0 -14 -211 -158 -242 -166 -44 -11
-9 22 103 97 67 44 125 81 130 81 5 0 9 -6 9 -12z"/>
<path d="M2398 2225 c-3 -3 -56 -10 -119 -16 -129 -13 -176 -28 -88 -29 65 0
219 27 234 41 5 6 3 9 -6 9 -9 0 -18 -2 -21 -5z"/>
<path d="M600 2131 c0 -10 156 -22 179 -13 12 5 11 8 -9 13 -36 10 -170 10
-170 0z"/>
<path d="M1944 965 c11 -8 25 -15 30 -15 6 0 2 7 -8 15 -11 8 -25 15 -30 15
-6 0 -2 -7 8 -15z"/>
</g>
</svg>
